<?xml version="1.0" encoding="utf-8"?>
<!-- Generator: Adobe Illustrator 24.0.0, SVG Export Plug-In . SVG Version: 6.00 Build 0)  -->
<svg version="1.1" id="Layer_1" xmlns="http://www.w3.org/2000/svg" xmlns:xlink="http://www.w3.org/1999/xlink" x="0px" y="0px"
	 viewBox="0 0 256 256" enable-background="new 0 0 256 256" xml:space="preserve">
<g>
	<g>
		<g>
			<g>
				<g>
					
						<ellipse transform="matrix(0.7071 -0.7071 0.7071 0.7071 -53.0194 128)" fill="#478CF7" cx="128" cy="128" rx="98.805" ry="98.806"/>
				</g>
			</g>
		</g>
		<g>
			<path fill="#377DE2" d="M192.688,53.312c15.025,17.333,24.118,39.949,24.118,64.688c0,54.569-44.237,98.805-98.805,98.805
				c-24.739,0-47.355-9.092-64.688-24.118c18.117,20.899,44.859,34.118,74.688,34.118c54.569,0,98.805-44.237,98.805-98.805
				C226.805,98.171,213.587,71.429,192.688,53.312z"/>
		</g>
		<g>
			<path fill="#2266D3" d="M195.322,55.678c16.432,17.644,26.484,41.309,26.484,67.322c0,54.569-44.237,98.805-98.805,98.805
				c-26.013,0-49.677-10.052-67.322-26.484c18.039,19.37,43.765,31.484,72.322,31.484c54.569,0,98.805-44.237,98.805-98.805
				C226.805,99.444,214.691,73.717,195.322,55.678z"/>
		</g>
		<g>
			<g>
				<g>
					<path fill="#2266D3" d="M128,29.194c-48.259,0-88.438,34.599-97.083,80.345c0.003,0.004,0.005,0.008,0.008,0.012l27.531,27.531
						c1.607,1.606,4.214,1.606,5.833,0l3.596-3.608c0.803-0.803,1.199-1.853,1.199-2.904c0-1.063-0.396-2.113-1.199-2.916
						c-1.606-1.607-1.606-4.226,0-5.833L103.805,85.9c2.41-2.409,2.41-6.314,0-8.736l-13.642-13.63
						c-1.557-1.569-2.335-3.608-2.335-5.659c0-2.039,0.779-4.09,2.335-5.647c3.126-3.126,8.193-3.126,11.319,0l11.739,11.727
						c1.149,1.162,2.731,1.817,4.362,1.817h8.786c3.41,0,6.178-2.768,6.178-6.179V29.297C131.04,29.229,129.524,29.194,128,29.194z"
						/>
				</g>
			</g>
		</g>
		<g>
			<path fill="#377DE2" d="M37.45,109.59c-0.15,0-0.301-0.02-0.44-0.05c-1.08-0.24-1.76-1.31-1.52-2.39c0-0.01,0.01-0.01,0.01-0.02
				c0.24-1.05,1.319-1.73,2.38-1.49c1.07,0.24,1.75,1.3,1.52,2.37c0,0.01,0,0.01,0,0.01C39.189,108.93,38.37,109.59,37.45,109.59z
				 M39.53,101.87c-0.211,0-0.41-0.03-0.61-0.1c-0.51-0.16-0.92-0.51-1.17-0.98c-0.24-0.48-0.29-1.02-0.13-1.53
				c3-9.46,7.46-18.36,13.25-26.44c5.68-7.92,12.529-14.91,20.359-20.76c7.86-5.87,16.53-10.47,25.78-13.67
				c9.5-3.28,19.42-5.03,29.51-5.18h0.03c1.08,0,1.98,0.88,2,1.97c0.01,1.1-0.87,2.01-1.97,2.03
				c-39.141,0.6-73.351,26.02-85.141,63.26C41.17,101.31,40.399,101.87,39.53,101.87z"/>
		</g>
		<g>
			<g>
				<g>
					<path fill="#2266D3" d="M177.178,42.283l-31.581,31.581c-1.149,1.162-1.804,2.731-1.804,4.362v47.216
						c0,1.644,0.655,3.213,1.804,4.362l7.118,7.118c1.161,1.162,2.731,1.804,4.362,1.804h9.712c3.41,0,6.178,2.768,6.178,6.178
						v38.109c0,3.41,2.768,6.178,6.178,6.178h5.659c1.644,0,3.213-0.642,4.374-1.804l34.451-34.451
						c0.007-0.026,0.015-0.054,0.022-0.08c2.058-7.941,3.153-16.271,3.153-24.856C226.805,91.335,206.835,59.335,177.178,42.283z"/>
				</g>
			</g>
		</g>
		<g>
			<g>
				<g>
					<path fill="#2266D3" d="M67.215,151.006l5.728-5.728c2.413-2.413,6.325-2.413,8.738,0l7.022,7.022
						c1.159,1.159,2.73,1.81,4.369,1.81h23.663c3.412,0,6.178,2.766,6.178,6.178v22.291c0,1.639-0.651,3.21-1.81,4.369
						l-24.268,24.268c-2.189,2.189-5.937,0.775-6.135-2.314l-0.392-6.119c0-1.639-0.651-3.21-1.81-4.369L67.87,177.786
						c-1.104-1.104-1.749-2.585-1.806-4.145l-0.655-18.042C65.347,153.883,66.001,152.219,67.215,151.006z"/>
				</g>
			</g>
		</g>
	</g>
	<g>
		<g>
			<g>
				<g>
					<path fill="#FFA91A" d="M128,215.18c-48.071,0-87.18-39.108-87.18-87.18S79.929,40.82,128,40.82s87.18,39.108,87.18,87.18
						S176.071,215.18,128,215.18z M128,44.82c-45.865,0-83.18,37.314-83.18,83.18s37.314,83.18,83.18,83.18
						s83.18-37.314,83.18-83.18S173.865,44.82,128,44.82z"/>
				</g>
			</g>
		</g>
		<g>
			<g>
				<g>
					<path fill="#FFA91A" d="M128,215.18c-32.873,0-59.617-39.108-59.617-87.18S95.127,40.82,128,40.82s59.617,39.108,59.617,87.18
						S160.873,215.18,128,215.18z M128,44.82c-30.667,0-55.617,37.314-55.617,83.18s24.95,83.18,55.617,83.18
						s55.617-37.314,55.617-83.18S158.667,44.82,128,44.82z"/>
				</g>
			</g>
		</g>
		<g>
			<g>
				<g>
					<path fill="#FFA91A" d="M128,215.18c-6.129,0-11.164-8.925-14.967-26.526c-3.505-16.223-5.435-37.763-5.435-60.653
						s1.93-44.431,5.435-60.653C116.836,49.745,121.871,40.82,128,40.82s11.164,8.925,14.967,26.526
						c3.505,16.223,5.435,37.763,5.435,60.653s-1.93,44.431-5.435,60.653C139.164,206.255,134.129,215.18,128,215.18z M128,44.82
						c-6.849,0-16.401,31.645-16.401,83.18s9.553,83.18,16.401,83.18s16.401-31.645,16.401-83.18S134.849,44.82,128,44.82z"/>
				</g>
			</g>
		</g>
	</g>
	<g>
		<g>
			<path fill="#FFA91A" d="M210.585,111.923H45.415c-1.104,0-2-0.896-2-2s0.896-2,2-2h165.17c1.104,0,2,0.896,2,2
				S211.689,111.923,210.585,111.923z"/>
		</g>
		<g>
			<path fill="#FFA91A" d="M210.585,148.078H45.415c-1.104,0-2-0.896-2-2s0.896-2,2-2h165.17c1.104,0,2,0.896,2,2
				S211.689,148.078,210.585,148.078z"/>
		</g>
		<g>
			<g>
				<path fill="#FFA91A" d="M190.65,73.396H65.35c-1.104,0-2-0.896-2-2s0.896-2,2-2H190.65c1.104,0,2,0.896,2,2
					S191.755,73.396,190.65,73.396z"/>
			</g>
			<g>
				<path fill="#FFA91A" d="M190.65,186.604H65.35c-1.104,0-2-0.896-2-2s0.896-2,2-2H190.65c1.104,0,2,0.896,2,2
					S191.755,186.604,190.65,186.604z"/>
			</g>
		</g>
	</g>
	<g>
		<g>
			<g>
				<g>
					<g>
						<g>
							<g>
								<path fill="#F1F2F2" d="M160.644,116.394c0,22.992-24.467,48.677-31.043,55.166c-0.91,0.898-2.356,0.935-3.312,0.085
									c-6.459-5.744-29.183-27.617-30.855-52.386c-1.265-18.74,13.131-35.151,31.911-35.513
									C145.674,83.393,160.644,98.146,160.644,116.394z"/>
							</g>
						</g>
					</g>
				</g>
			</g>
		</g>
		<g>
			<path fill="#E6E7E8" d="M148.444,90.939c4.504,5.597,7.2,12.711,7.2,20.455c0,22.992-24.467,48.677-31.043,55.166
				c-0.91,0.898-2.356,0.935-3.312,0.085c-0.618-0.549-1.385-1.247-2.268-2.08c3.046,3.223,5.661,5.651,7.268,7.08
				c0.956,0.85,2.402,0.813,3.312-0.085c6.576-6.489,31.043-32.174,31.043-55.166C160.644,106.104,155.883,96.925,148.444,90.939z"
				/>
		</g>
		<g>
			<g>
				<g>
					
						<ellipse transform="matrix(0.9962 -0.0871 0.0871 0.9962 -9.7243 11.588)" fill="#FFA91A" cx="128" cy="117.289" rx="16.448" ry="16.448"/>
				</g>
			</g>
		</g>
	</g>
	<g>
		<g>
			<circle fill="#FFFFFF" cx="78.788" cy="82.992" r="7.695"/>
		</g>
		<g>
			<circle fill="#FFFFFF" cx="177.212" cy="173.008" r="7.695"/>
		</g>
	</g>
</g>
</svg>
