<?xml version="1.0" encoding="utf-8"?>
<!-- Generator: Adobe Illustrator 24.0.0, SVG Export Plug-In . SVG Version: 6.00 Build 0)  -->
<svg version="1.1" id="Layer_1" xmlns="http://www.w3.org/2000/svg" xmlns:xlink="http://www.w3.org/1999/xlink" x="0px" y="0px"
	 viewBox="0 0 256 256" enable-background="new 0 0 256 256" xml:space="preserve">
<g>
	<g>
		<path fill="#EF7816" d="M127.493,204.113c-2.761,0-5-2.239-5-5v-14.569c0-2.761,2.239-5,5-5s5,2.239,5,5v14.569
			C132.492,201.875,130.254,204.113,127.493,204.113z"/>
	</g>
	<g>
		<path fill="#EF7816" d="M90.397,178.312c-0.452,0-0.911-0.103-1.343-0.319c-1.481-0.743-2.079-2.546-1.336-4.027l74.186-147.878
			c0.743-1.481,2.545-2.078,4.027-1.336c1.48,0.743,2.079,2.546,1.336,4.027L93.082,176.657
			C92.555,177.706,91.497,178.312,90.397,178.312z"/>
	</g>
	<g>
		<path fill="#8C3F0A" d="M139.549,209.834l-4.394-8.398c-0.747-1.428-2.225-2.322-3.836-2.322h-7.651
			c-1.611,0-3.089,0.895-3.836,2.322l-4.394,8.398c-1.073,2.05-3.052,3.471-5.337,3.833l-27.85,4.41
			c-8.773,1.389-15.663,8.256-17.081,17.025v0c-0.288,1.779,1.086,3.393,2.888,3.393h118.872c1.802,0,3.176-1.614,2.888-3.393v0
			c-1.418-8.769-8.307-15.635-17.081-17.025l-27.85-4.41C142.6,213.305,140.621,211.883,139.549,209.834z"/>
	</g>
	<g>
		<path fill="#995222" d="M83.19,226c-0.99,0-1.82-0.71-1.98-1.68c-0.08-0.53,0.05-1.06,0.36-1.49c0.31-0.44,0.78-0.72,1.31-0.8
			c1.08-0.17,2.11,0.58,2.28,1.66c0.18,1.09-0.57,2.12-1.66,2.29C83.4,225.99,83.29,226,83.19,226z M91.09,224.75
			c-0.99,0-1.82-0.71-1.98-1.68c-0.08-0.53,0.05-1.06,0.36-1.49c0.32-0.44,0.78-0.72,1.31-0.8l19.95-3.16
			c3.52-0.56,6.6-2.77,8.25-5.93l3.93-7.5c0.34-0.67,1.02-1.08,1.77-1.08h5.63c1.101,0,2,0.9,2,2c0,1.11-0.899,2-2,2h-4.42
			l-3.37,6.43c-2.23,4.27-6.41,7.27-11.17,8.03l-19.95,3.16C91.3,224.74,91.19,224.75,91.09,224.75z"/>
	</g>
	<g>
		<g>
			<path fill="#7C3108" d="M189.817,235.102c-1.109-6.856-5.562-12.548-11.645-15.37c0.778,1.678,1.339,3.48,1.645,5.37
				c0.288,1.779-1.086,3.393-2.888,3.393H67.439c-1.107,2.018-1.888,4.243-2.271,6.607c-0.288,1.779,1.086,3.393,2.888,3.393
				h118.872C188.731,238.495,190.104,236.881,189.817,235.102z"/>
		</g>
	</g>
	<g>
		<g>
			<path fill="#6D2E03" d="M189.817,235.102c-0.906-5.599-4.041-10.421-8.474-13.539c1.752,2.491,2.965,5.393,3.474,8.539
				c0.288,1.779-1.086,3.393-2.888,3.393H65.495c-0.129,0.528-0.238,1.064-0.326,1.607c-0.288,1.779,1.086,3.393,2.888,3.393
				h118.872C188.731,238.495,190.104,236.881,189.817,235.102z"/>
		</g>
	</g>
	<g>
		<path fill="#FFA91A" d="M127.35,189.085c-13.207,0-26.604-2.99-39.192-9.305c-2.468-1.238-3.465-4.243-2.227-6.711
			c1.238-2.468,4.241-3.465,6.711-2.227c38.304,19.218,85.103,3.686,104.321-34.619c19.216-38.306,3.687-85.104-34.619-104.32
			c-2.468-1.238-3.465-4.243-2.227-6.711c1.238-2.468,4.242-3.465,6.711-2.227c43.233,21.689,60.762,74.508,39.072,117.743
			C190.525,171.354,159.507,189.085,127.35,189.085z"/>
	</g>
	<g>
		<g>
			<g>
				<g>
					
						<ellipse transform="matrix(0.7071 -0.7071 0.7071 0.7071 -34.3395 119.8423)" fill="#377DE2" cx="127.493" cy="101.373" rx="69.425" ry="69.425"/>
				</g>
			</g>
		</g>
		<g>
			<path fill="#2266D3" d="M171.33,47.535c9.745,11.953,15.588,27.213,15.588,43.837c0,38.342-31.083,69.425-69.425,69.425
				c-16.624,0-31.884-5.843-43.837-15.588c12.73,15.616,32.119,25.588,53.837,25.588c38.343,0,69.425-31.083,69.425-69.425
				C196.918,79.654,186.946,60.266,171.33,47.535z"/>
		</g>
		<g>
			<g>
				<g>
					<path fill="#91B56B" d="M127.493,31.947c-33.909,0-62.14,24.311-68.215,56.454c0.002,0.003,0.004,0.006,0.005,0.009
						l19.345,19.345c1.129,1.129,2.961,1.129,4.098,0l2.527-2.535c0.564-0.564,0.842-1.302,0.842-2.04
						c0-0.747-0.278-1.485-0.842-2.049c-1.129-1.129-1.129-2.969,0-4.098l25.24-25.24c1.693-1.693,1.693-4.437,0-6.138l-9.586-9.577
						c-1.094-1.103-1.641-2.535-1.641-3.976c0-1.433,0.547-2.874,1.641-3.968c2.197-2.197,5.757-2.197,7.953,0l8.249,8.24
						c0.807,0.816,1.919,1.276,3.065,1.276h6.173c2.396,0,4.341-1.945,4.341-4.341V32.019
						C129.629,31.972,128.563,31.947,127.493,31.947z"/>
				</g>
			</g>
		</g>
		<g>
			<g>
				<g>
					<path fill="#91B56B" d="M162.047,41.144l-22.191,22.19c-0.807,0.816-1.268,1.919-1.268,3.065v33.176
						c0,1.155,0.46,2.257,1.268,3.065l5.001,5.001c0.816,0.816,1.919,1.268,3.065,1.268h6.824c2.396,0,4.341,1.945,4.341,4.341
						v26.777c0,2.396,1.945,4.341,4.341,4.341h3.977c1.155,0,2.257-0.451,3.074-1.268l24.207-24.207
						c0.005-0.019,0.01-0.038,0.016-0.057c1.446-5.58,2.215-11.432,2.215-17.465C196.918,75.61,182.886,53.125,162.047,41.144z"/>
				</g>
			</g>
		</g>
		<g>
			<path fill="#76A34F" d="M196.914,100.635c-0.08-20.359-9.744-40.324-25.583-53.099c23.876,28.198,19.467,73.586-8.862,96.725
				c0.605,0.198,4.242,0.076,4.938,0.107c1.155,0,2.257-0.451,3.074-1.268l24.207-24.207
				C196.239,112.944,196.979,106.783,196.914,100.635z"/>
		</g>
		<g>
			<g>
				<g>
					<path fill="#91B56B" d="M87.782,114.537l4.025-4.025c1.695-1.695,4.444-1.695,6.139,0l4.934,4.934
						c0.814,0.814,1.918,1.272,3.07,1.272h16.626c2.398,0,4.341,1.944,4.341,4.341v15.663c0,1.151-0.457,2.256-1.272,3.07
						l-17.052,17.052c-1.538,1.538-4.172,0.545-4.311-1.626l-0.275-4.299c0-1.151-0.457-2.256-1.272-3.07l-14.494-14.494
						c-0.776-0.776-1.229-1.816-1.269-2.912l-0.46-12.677C86.47,116.559,86.93,115.39,87.782,114.537z"/>
				</g>
			</g>
		</g>
	</g>
</g>
</svg>
