<svg width="308" height="72" viewBox="0 0 308 72" fill="none" xmlns="http://www.w3.org/2000/svg">
<path d="M39.5173 40.188H30.5296L16.5368 22.411C16.0331 21.8156 15.7277 21.0505 15.7277 20.214C15.7277 18.3221 17.2839 16.7891 19.2 16.7891C20.1078 16.7891 21.1011 16.791 21.1011 16.791L39.5164 40.188H39.5173Z" fill="#B2167E"/>
<g style="mix-blend-mode:overlay">
<path d="M39.5164 40.1871H30.5286L16.5358 22.411C16.0321 21.8156 15.7277 21.0505 15.7277 20.214C15.7277 18.3221 17.2829 16.7891 19.2 16.7891C20.1078 16.7891 21.1011 16.791 21.1011 16.791L39.5164 40.188V40.1871Z" fill="#BC1B8E"/>
</g>
<g filter="url(#filter0_d_2_107371)">
<path d="M54.7346 54.0347C55.3182 54.0347 55.8632 53.8724 56.3275 53.5924C56.6883 53.3735 56.9994 53.0832 57.24 52.7419L59.6138 49.369L67.1439 38.6447L49.4109 16.343C48.9523 15.7661 48.2494 15.4286 47.5061 15.4286L20.5852 15.4351C20.5974 15.4351 20.6096 15.4351 20.6219 15.4351H20.6435L20.8023 15.4425C21.9074 15.5176 22.8697 16.1028 23.4505 16.9606L23.4552 16.9634L51.7791 52.5843C51.7791 52.5843 51.781 52.5871 51.7819 52.5889L52.2255 53.1472C52.2255 53.1472 52.2283 53.15 52.2302 53.1518C52.7818 53.6962 53.5439 54.0338 54.3869 54.0338H54.7374C54.7374 54.0338 54.7412 54.0338 54.7431 54.0338H54.7327L54.7346 54.0347Z" fill="#9C2DD1"/>
</g>
<path d="M70.6756 36.125L67.9277 40.0377L60.3976 50.762L58.0238 54.1349C57.8856 54.3306 57.7249 54.5086 57.5454 54.6672C57.0098 55.1383 56.3059 55.4249 55.5334 55.4286H74.4956H76.86C78.046 55.4286 79.1887 55.1058 80.1754 54.5197C80.9432 54.0635 81.6161 53.4477 82.1414 52.6993L93.7783 36.126H70.6756V36.125Z" fill="#BC1B8E"/>
<path d="M99.225 24.8158H101.921C102.354 24.8158 102.709 24.8779 102.982 25.0022C103.256 25.1255 103.467 25.2804 103.615 25.4668C103.764 25.6532 103.865 25.8554 103.919 26.0752C103.974 26.295 104.001 26.4971 104.001 26.6835C104.001 26.8699 103.974 27.0712 103.919 27.2873C103.864 27.5043 103.764 27.7055 103.615 27.891C103.467 28.0774 103.256 28.2304 102.982 28.351C102.709 28.4725 102.354 28.5327 101.921 28.5327H100.295V30.8466H99.2259V24.8158H99.225ZM100.294 27.6712H101.861C101.981 27.6712 102.103 27.6545 102.229 27.6202C102.354 27.5868 102.47 27.5312 102.576 27.4551C102.681 27.3791 102.767 27.278 102.833 27.1509C102.898 27.0248 102.931 26.8653 102.931 26.6743C102.931 26.4832 102.903 26.3135 102.846 26.1837C102.788 26.0548 102.711 25.9518 102.615 25.8758C102.518 25.7997 102.406 25.7478 102.281 25.72C102.155 25.6922 102.022 25.6773 101.879 25.6773H100.295V27.6703L100.294 27.6712Z" fill="black"/>
<path d="M108.356 24.8158H109.426V29.934H112.533V30.8466H108.356V24.8158Z" fill="black"/>
<path d="M118.327 24.8158H119.465L121.818 30.8466H120.672L120.099 29.2505H117.659L117.086 30.8466H115.982L118.326 24.8158H118.327ZM117.95 28.4483H119.816L118.9 25.8554H118.875L117.95 28.4483Z" fill="black"/>
<path d="M124.455 24.8158H129.402V25.7283H127.46V30.8466H126.39V25.7283H124.456V24.8158H124.455Z" fill="black"/>
<path d="M134.383 24.8158H135.521L137.874 30.8466H136.727L136.154 29.2505H133.715L133.141 30.8466H132.037L134.382 24.8158H134.383ZM134.006 28.4483H135.871L134.956 25.8554H134.931L134.006 28.4483Z" fill="black"/>
<path d="M141.88 24.8158H146.099V25.7283H142.95V27.3077H145.714V28.1692H142.95V30.8466H141.881V24.8158H141.88Z" fill="black"/>
<path d="M152.98 24.6726C153.437 24.6726 153.846 24.757 154.209 24.9258C154.571 25.0946 154.878 25.3227 155.129 25.6102C155.379 25.8977 155.572 26.2325 155.706 26.6155C155.841 26.9985 155.908 27.4038 155.908 27.8322C155.908 28.2607 155.841 28.6743 155.706 29.0564C155.572 29.4394 155.379 29.7742 155.129 30.0617C154.878 30.3492 154.57 30.5754 154.209 30.7415C153.846 30.9075 153.437 30.9909 152.98 30.9909C152.524 30.9909 152.114 30.9075 151.752 30.7415C151.389 30.5754 151.083 30.3492 150.832 30.0617C150.581 29.7742 150.388 29.4394 150.254 29.0564C150.12 28.6734 150.053 28.2653 150.053 27.8322C150.053 27.3992 150.12 26.9994 150.254 26.6155C150.388 26.2325 150.58 25.8977 150.832 25.6102C151.083 25.3237 151.389 25.0946 151.752 24.9258C152.114 24.757 152.524 24.6726 152.98 24.6726ZM152.98 25.5333C152.655 25.5333 152.374 25.5982 152.137 25.7271C151.901 25.8569 151.708 26.0303 151.559 26.2464C151.411 26.4634 151.301 26.7092 151.23 26.9855C151.158 27.2619 151.122 27.5429 151.122 27.8304C151.122 28.1179 151.158 28.3989 151.23 28.6752C151.301 28.9516 151.411 29.1974 151.559 29.4144C151.708 29.6314 151.901 29.8039 152.137 29.9337C152.374 30.0635 152.655 30.1275 152.98 30.1275C153.305 30.1275 153.586 30.0626 153.823 29.9337C154.06 29.8039 154.253 29.6314 154.401 29.4144C154.55 29.1974 154.66 28.9516 154.731 28.6752C154.802 28.3989 154.838 28.1179 154.838 27.8304C154.838 27.5429 154.802 27.2619 154.731 26.9855C154.66 26.7092 154.55 26.4634 154.401 26.2464C154.253 26.0294 154.06 25.8569 153.823 25.7271C153.586 25.5982 153.305 25.5333 152.98 25.5333Z" fill="black"/>
<path d="M160.306 24.8156H163.223C163.896 24.8156 164.402 24.9594 164.738 25.2468C165.075 25.5334 165.243 25.934 165.243 26.446C165.243 26.7325 165.201 26.9709 165.115 27.1591C165.03 27.3483 164.93 27.4995 164.815 27.6154C164.701 27.7304 164.589 27.8138 164.477 27.8649C164.366 27.9159 164.284 27.9492 164.234 27.9659V27.9826C164.325 27.9938 164.424 28.0225 164.529 28.067C164.634 28.1125 164.733 28.1839 164.824 28.2822C164.915 28.3805 164.991 28.5094 165.05 28.6661C165.11 28.8238 165.141 29.0213 165.141 29.2578C165.141 29.612 165.168 29.9348 165.222 30.2251C165.277 30.5153 165.36 30.7221 165.475 30.8455H164.328C164.248 30.7156 164.201 30.5728 164.187 30.4152C164.173 30.2575 164.165 30.1054 164.165 29.9589C164.165 29.6825 164.148 29.4451 164.113 29.2448C164.08 29.0454 164.017 28.8794 163.925 28.7468C163.834 28.6142 163.71 28.5168 163.553 28.4556C163.396 28.3944 163.195 28.3629 162.95 28.3629H161.375V30.8455H160.306V24.8147V24.8156ZM161.375 27.5607H163.129C163.472 27.5607 163.732 27.4809 163.909 27.3205C164.085 27.16 164.174 26.9189 164.174 26.598C164.174 26.4061 164.145 26.2503 164.088 26.1297C164.031 26.0082 163.953 25.9146 163.853 25.8469C163.753 25.7792 163.639 25.7346 163.511 25.7115C163.382 25.6892 163.25 25.6781 163.114 25.6781H161.376V27.5616L161.375 27.5607Z" fill="black"/>
<path d="M169.737 24.8158H171.243L172.929 29.5371H172.946L174.589 24.8158H176.078V30.8466H175.06V26.1929H175.043L173.348 30.8466H172.467L170.772 26.1929H170.756V30.8466H169.737V24.8158Z" fill="black"/>
<path d="M182.42 24.8158H183.558L185.911 30.8466H184.764L184.191 29.2505H181.751L181.178 30.8466H180.074L182.419 24.8158H182.42ZM182.044 28.4483H183.909L182.994 25.8554H182.968L182.044 28.4483Z" fill="black"/>
<path d="M196.593 24.8158L199.811 29.7059H199.828V24.8158H200.598V30.8466H199.708L196.516 26.0075H196.499V30.8466H195.728V24.8158H196.593Z" fill="black"/>
<path d="M207.898 24.8158L210.286 30.8466H209.387L208.719 29.0307H206.135L205.45 30.8466H204.62L207 24.8158H207.898ZM208.463 28.3547L207.444 25.5419H207.427L206.392 28.3547H208.463Z" fill="black"/>
<path d="M218.001 25.6688C217.69 25.4546 217.321 25.348 216.893 25.348C216.528 25.348 216.216 25.4157 215.956 25.5511C215.697 25.6865 215.483 25.8682 215.315 26.0954C215.146 26.3236 215.022 26.5832 214.942 26.8763C214.862 27.1694 214.823 27.4735 214.823 27.7888C214.823 28.132 214.862 28.4575 214.942 28.7645C215.022 29.0714 215.146 29.3385 215.315 29.5666C215.483 29.7948 215.698 29.9766 215.961 30.111C216.224 30.2455 216.537 30.3141 216.903 30.3141C217.17 30.3141 217.409 30.2705 217.617 30.1834C217.826 30.0962 218.005 29.9747 218.156 29.8208C218.308 29.6659 218.426 29.4813 218.512 29.2671C218.597 29.0529 218.649 28.8229 218.666 28.5743H219.479C219.399 29.3339 219.133 29.9255 218.683 30.3475C218.232 30.7695 217.616 30.9809 216.834 30.9809C216.36 30.9809 215.947 30.9002 215.594 30.7398C215.239 30.5794 214.946 30.3586 214.712 30.0767C214.478 29.7957 214.303 29.4628 214.186 29.0798C214.069 28.6968 214.01 28.2859 214.01 27.8463C214.01 27.4068 214.072 26.995 214.198 26.6092C214.323 26.2234 214.507 25.8868 214.75 25.6002C214.992 25.3127 215.295 25.0864 215.657 24.9204C216.019 24.7544 216.434 24.6719 216.902 24.6719C217.221 24.6719 217.524 24.7136 217.809 24.798C218.093 24.8824 218.348 25.0067 218.57 25.1699C218.792 25.3331 218.978 25.5372 219.126 25.782C219.275 26.0268 219.371 26.3097 219.417 26.6305H218.605C218.513 26.203 218.312 25.8821 218.001 25.6679V25.6688Z" fill="black"/>
<path d="M224.758 24.8158V30.8466H223.945V24.8158H224.758Z" fill="black"/>
<path d="M229.392 26.6443C229.514 26.264 229.698 25.9283 229.943 25.6353C230.189 25.3422 230.494 25.1085 230.86 24.9342C231.225 24.7598 231.65 24.6726 232.135 24.6726C232.62 24.6726 233.045 24.7598 233.41 24.9342C233.776 25.1085 234.08 25.3422 234.325 25.6353C234.571 25.9283 234.755 26.264 234.877 26.6443C234.999 27.0245 235.061 27.4205 235.061 27.8313C235.061 28.2421 234.999 28.6381 234.877 29.0174C234.754 29.3977 234.571 29.7343 234.325 30.0264C234.08 30.3195 233.775 30.5513 233.41 30.7229C233.045 30.8945 232.62 30.9807 232.135 30.9807C231.65 30.9807 231.225 30.8945 230.86 30.7229C230.494 30.5513 230.189 30.3195 229.943 30.0264C229.698 29.7334 229.514 29.3977 229.392 29.0174C229.269 28.6372 229.208 28.2421 229.208 27.8313C229.208 27.4205 229.269 27.0245 229.392 26.6443ZM230.141 28.7309C230.221 29.0267 230.347 29.2929 230.518 29.5284C230.689 29.7649 230.909 29.955 231.176 30.0988C231.444 30.2425 231.764 30.3139 232.135 30.3139C232.506 30.3139 232.826 30.2425 233.093 30.0988C233.362 29.955 233.581 29.7649 233.752 29.5284C233.923 29.2919 234.049 29.0258 234.129 28.7309C234.209 28.435 234.248 28.1355 234.248 27.8313C234.248 27.5271 234.209 27.2276 234.129 26.9317C234.049 26.6359 233.924 26.3698 233.752 26.1333C233.581 25.8968 233.361 25.7067 233.093 25.5639C232.826 25.4201 232.506 25.3487 232.135 25.3487C231.764 25.3487 231.444 25.4201 231.176 25.5639C230.908 25.7076 230.689 25.8977 230.518 26.1333C230.347 26.3698 230.221 26.6359 230.141 26.9317C230.061 27.2276 230.021 27.5271 230.021 27.8313C230.021 28.1355 230.061 28.435 230.141 28.7309Z" fill="black"/>
<path d="M240.334 24.8158L243.552 29.7059H243.569V24.8158H244.339V30.8466H243.449L240.257 26.0075H240.24V30.8466H239.47V24.8158H240.334Z" fill="black"/>
<path d="M251.639 24.8158L254.027 30.8466H253.129L252.461 29.0307H249.876L249.191 30.8466H248.362L250.741 24.8158H251.639ZM252.204 28.3547L251.186 25.5419H251.169L250.133 28.3547H252.204Z" fill="black"/>
<path d="M258.862 24.8156V30.1703H262.097V30.8455H258.049V24.8147H258.862V24.8156Z" fill="black"/>
<path d="M274.131 24.8156C275.073 24.8156 275.797 25.0521 276.305 25.5251C276.812 25.998 277.066 26.7186 277.066 27.6868C277.066 28.1931 277.009 28.642 276.895 29.0334C276.781 29.4247 276.604 29.7539 276.364 30.022C276.124 30.29 275.819 30.494 275.448 30.634C275.077 30.775 274.638 30.8455 274.13 30.8455H272.034V24.8147H274.13L274.131 24.8156ZM274.199 30.1713C274.29 30.1713 274.405 30.1638 274.541 30.1499C274.678 30.136 274.823 30.1017 274.977 30.0488C275.131 29.9951 275.283 29.9181 275.436 29.8161C275.587 29.715 275.722 29.5768 275.842 29.4025C275.962 29.2281 276.061 29.0102 276.138 28.7487C276.215 28.4871 276.253 28.17 276.253 27.7981C276.253 27.4262 276.217 27.1155 276.146 26.8308C276.075 26.5461 275.957 26.3041 275.795 26.1047C275.633 25.9053 275.422 25.7532 275.166 25.6484C274.909 25.5445 274.593 25.4926 274.216 25.4926H272.847V30.1713H274.199Z" fill="black"/>
<path d="M285.701 24.8156V25.4917H282.296V27.4086H285.47V28.0837H282.296V30.1703H285.728V30.8455H281.483V24.8147H285.702L285.701 24.8156Z" fill="black"/>
<path d="M99.006 37.9066V36.0797H107.212V37.9066H104.21V45.9628H102.008V37.9066H99.0069H99.006Z" fill="black"/>
<path d="M119.372 36.0797C119.821 36.0797 120.225 36.1511 120.585 36.2939C120.945 36.4367 121.253 36.6333 121.511 36.8819C121.768 37.1313 121.965 37.4198 122.1 37.7471C122.235 38.0745 122.304 38.4278 122.304 38.8062C122.304 39.3877 122.18 39.8903 121.932 40.3141C121.684 40.7389 121.28 41.0616 120.719 41.2832V41.3111C120.989 41.3853 121.214 41.4984 121.392 41.6505C121.569 41.8026 121.714 41.9834 121.827 42.1902C121.939 42.398 122.02 42.6261 122.072 42.8756C122.124 43.125 122.158 43.3736 122.177 43.623C122.187 43.7798 122.196 43.9643 122.205 44.1767C122.215 44.3891 122.231 44.6061 122.254 44.8277C122.278 45.0484 122.315 45.2589 122.366 45.4574C122.418 45.6559 122.495 45.8237 122.597 45.9628H120.395C120.274 45.6494 120.199 45.2756 120.171 44.8416C120.143 44.4076 120.1 43.9931 120.045 43.5961C119.97 43.0796 119.811 42.7012 119.568 42.461C119.325 42.2208 118.928 42.1012 118.376 42.1012H116.174V45.9628H113.972V36.0797H119.373H119.372ZM118.586 40.5506C119.091 40.5506 119.47 40.4393 119.723 40.2177C119.975 39.997 120.101 39.6362 120.101 39.1382C120.101 38.6402 119.975 38.31 119.723 38.093C119.47 37.876 119.091 37.7675 118.586 37.7675H116.174V40.5497H118.586V40.5506Z" fill="black"/>
<path d="M134.703 36.0797L138.448 45.9628H136.162L135.404 43.7612H131.659L130.874 45.9628H128.658L132.445 36.0797H134.703ZM134.829 42.142L133.567 38.5159H133.539L132.234 42.142H134.829Z" fill="black"/>
<path d="M147.116 36.0797L151.296 42.7105H151.324V36.0797H153.386V45.9628H151.184L147.018 39.3459H146.99V45.9628H144.928V36.0797H147.116Z" fill="black"/>
<path d="M162.615 43.5266C162.737 43.7575 162.898 43.9439 163.099 44.0876C163.3 44.2305 163.536 44.3371 163.808 44.4057C164.079 44.4753 164.36 44.5096 164.649 44.5096C164.845 44.5096 165.056 44.4938 165.281 44.4614C165.505 44.4289 165.716 44.3668 165.911 44.274C166.107 44.1822 166.271 44.0552 166.403 43.8938C166.533 43.7324 166.599 43.5266 166.599 43.278C166.599 43.0109 166.513 42.7939 166.34 42.6279C166.167 42.4619 165.939 42.3237 165.659 42.2125C165.379 42.1021 165.061 42.0047 164.705 41.9222C164.35 41.8397 163.99 41.7469 163.625 41.6458C163.251 41.554 162.886 41.4399 162.531 41.3064C162.176 41.1719 161.858 40.9994 161.577 40.7871C161.297 40.5747 161.07 40.3095 160.897 39.9914C160.724 39.6733 160.637 39.2875 160.637 38.8349C160.637 38.3276 160.747 37.8871 160.967 37.5134C161.187 37.1397 161.475 36.8281 161.83 36.5786C162.185 36.3301 162.587 36.1446 163.036 36.0249C163.486 35.9053 163.934 35.845 164.383 35.845C164.906 35.845 165.409 35.9025 165.89 36.0175C166.372 36.1334 166.8 36.3199 167.174 36.5786C167.548 36.8373 167.845 37.1666 168.065 37.569C168.285 37.9706 168.395 38.4575 168.395 39.0287H166.263C166.244 38.7338 166.181 38.489 166.073 38.2952C165.966 38.1014 165.823 37.9493 165.645 37.838C165.468 37.7276 165.265 37.6497 165.035 37.6024C164.806 37.5561 164.556 37.5329 164.284 37.5329C164.107 37.5329 163.929 37.5514 163.752 37.5885C163.574 37.6256 163.412 37.6905 163.268 37.7823C163.123 37.8742 163.003 37.9901 162.91 38.1283C162.816 38.2664 162.77 38.4417 162.77 38.6541C162.77 38.8479 162.807 39.0046 162.881 39.1243C162.956 39.2448 163.103 39.3552 163.323 39.4572C163.543 39.5592 163.846 39.6603 164.235 39.7614C164.623 39.8634 165.13 39.9923 165.756 40.149C165.943 40.1861 166.202 40.2529 166.534 40.3503C166.866 40.4467 167.196 40.6016 167.523 40.814C167.85 41.0263 168.133 41.3101 168.371 41.6653C168.61 42.0205 168.729 42.4749 168.729 43.0286C168.729 43.4802 168.64 43.9003 168.462 44.288C168.285 44.6756 168.021 45.0104 167.67 45.2914C167.32 45.5733 166.885 45.7922 166.366 45.9489C165.847 46.1056 165.246 46.1845 164.563 46.1845C164.012 46.1845 163.476 46.1168 162.957 45.9832C162.439 45.8497 161.98 45.6392 161.583 45.3535C161.185 45.0679 160.869 44.7034 160.636 44.2601C160.402 43.8168 160.29 43.291 160.3 42.6817H162.432C162.432 43.0137 162.493 43.2956 162.614 43.5256L162.615 43.5266Z" fill="black"/>
<path d="M180.163 36.0797C180.79 36.0797 181.323 36.1697 181.763 36.3496C182.203 36.5295 182.56 36.7669 182.836 37.0618C183.111 37.3577 183.312 37.6943 183.439 38.0727C183.565 38.4511 183.628 38.8433 183.628 39.2486C183.628 39.6539 183.565 40.035 183.439 40.418C183.313 40.8011 183.112 41.1405 182.836 41.4354C182.56 41.7312 182.203 41.9686 181.763 42.1486C181.323 42.3285 180.79 42.4184 180.163 42.4184H177.849V45.962H175.647V36.0788H180.163V36.0797ZM179.56 40.7296C179.813 40.7296 180.055 40.7111 180.289 40.6749C180.523 40.6378 180.729 40.5664 180.907 40.4598C181.084 40.3541 181.227 40.2038 181.334 40.01C181.441 39.8162 181.496 39.563 181.496 39.2486C181.496 38.9342 181.441 38.6811 181.334 38.4872C181.226 38.2934 181.084 38.1432 180.907 38.0374C180.729 37.9317 180.523 37.8603 180.289 37.8232C180.055 37.7861 179.813 37.7676 179.56 37.7676H177.849V40.7296H179.56Z" fill="black"/>
<path d="M194.569 36.0797L198.313 45.9628H196.027L195.27 43.7612H191.525L190.739 45.9628H188.523L192.31 36.0797H194.569ZM194.695 42.142L193.432 38.5159H193.404L192.1 42.142H194.695H194.695Z" fill="black"/>
<path d="M210.195 36.0797C210.644 36.0797 211.048 36.1511 211.408 36.2939C211.768 36.4367 212.076 36.6333 212.334 36.8819C212.59 37.1313 212.786 37.4198 212.923 37.7471C213.058 38.0745 213.127 38.4278 213.127 38.8062C213.127 39.3877 213.003 39.8903 212.755 40.3141C212.506 40.7389 212.102 41.0616 211.541 41.2832V41.3111C211.813 41.3853 212.037 41.4984 212.215 41.6505C212.393 41.8026 212.537 41.9834 212.65 42.1902C212.763 42.398 212.844 42.6261 212.895 42.8756C212.947 43.125 212.982 43.3736 213.001 43.623C213.01 43.7798 213.02 43.9643 213.029 44.1767C213.038 44.3891 213.054 44.6061 213.078 44.8277C213.1 45.0484 213.138 45.2589 213.19 45.4574C213.241 45.6559 213.318 45.8237 213.421 45.9628H211.218C211.097 45.6494 211.022 45.2756 210.993 44.8416C210.965 44.4076 210.923 43.9931 210.868 43.5961C210.792 43.0796 210.634 42.7012 210.391 42.461C210.148 42.2208 209.75 42.1012 209.199 42.1012H206.997V45.9628H204.794V36.0797H210.195ZM209.409 40.5506C209.914 40.5506 210.292 40.4393 210.545 40.2177C210.797 39.997 210.924 39.6362 210.924 39.1382C210.924 38.6402 210.798 38.31 210.545 38.093C210.292 37.876 209.914 37.7675 209.409 37.7675H206.997V40.5497H209.409V40.5506Z" fill="black"/>
<path d="M228.022 36.0797V37.9067H222.734V40.0239H227.588V41.7127H222.734V44.135H228.135V45.962H220.532V36.0788H228.022V36.0797Z" fill="black"/>
<path d="M237.419 36.0797L241.599 42.7105H241.626V36.0797H243.689V45.9628H241.486L237.32 39.3459H237.293V45.9628H235.23V36.0797H237.418H237.419Z" fill="black"/>
<path d="M257.66 38.7162C257.53 38.5085 257.366 38.3267 257.17 38.17C256.973 38.0133 256.751 37.8909 256.503 37.8028C256.255 37.7156 255.996 37.6711 255.724 37.6711C255.229 37.6711 254.808 37.7657 254.462 37.9549C254.116 38.144 253.835 38.3972 253.62 38.7162C253.405 39.0343 253.248 39.3969 253.15 39.8031C253.053 40.2093 253.003 40.6294 253.003 41.0625C253.003 41.4956 253.052 41.8814 253.15 42.2737C253.248 42.666 253.405 43.0184 253.62 43.3328C253.835 43.6462 254.116 43.8985 254.462 44.0877C254.808 44.2768 255.229 44.3714 255.724 44.3714C256.398 44.3714 256.924 44.1683 257.302 43.7621C257.681 43.356 257.912 42.8209 257.997 42.1568H260.129C260.074 42.7745 259.928 43.3328 259.694 43.8317C259.46 44.3297 259.152 44.7545 258.768 45.105C258.385 45.4556 257.936 45.7236 257.422 45.9081C256.908 46.0927 256.342 46.1854 255.724 46.1854C254.958 46.1854 254.268 46.0537 253.656 45.7903C253.043 45.527 252.526 45.1653 252.106 44.7034C251.685 44.2416 251.363 43.7 251.138 43.0768C250.914 42.4536 250.802 41.7822 250.802 41.0625C250.802 40.3429 250.914 39.639 251.138 39.0065C251.363 38.375 251.685 37.8232 252.106 37.3521C252.526 36.8819 253.043 36.5128 253.656 36.2448C254.268 35.9767 254.958 35.8432 255.724 35.8432C256.276 35.8432 256.798 35.922 257.289 36.0788C257.78 36.2355 258.219 36.4636 258.608 36.7641C258.996 37.0636 259.316 37.4355 259.568 37.8779C259.821 38.3212 259.98 38.8285 260.045 39.4007H257.913C257.875 39.1512 257.792 38.9231 257.661 38.7153L257.66 38.7162Z" fill="black"/>
<path d="M269.443 36.0797V45.9628H267.24V36.0797H269.443Z" fill="black"/>
<path d="M281.982 36.0797L285.727 45.9628H283.44L282.683 43.7612H278.938L278.152 45.9628H275.936L279.724 36.0797H281.982ZM282.109 42.142L280.847 38.5159H280.818L279.514 42.142H282.11H282.109Z" fill="black"/>
<defs>
<filter id="filter0_d_2_107371" x="18.0126" y="14.1423" width="49.1313" height="41.1788" filterUnits="userSpaceOnUse" color-interpolation-filters="sRGB">
<feFlood flood-opacity="0" result="BackgroundImageFix"/>
<feColorMatrix in="SourceAlpha" type="matrix" values="0 0 0 0 0 0 0 0 0 0 0 0 0 0 0 0 0 0 127 0" result="hardAlpha"/>
<feOffset dx="-1.28631"/>
<feGaussianBlur stdDeviation="0.643155"/>
<feColorMatrix type="matrix" values="0 0 0 0 0 0 0 0 0 0 0 0 0 0 0 0 0 0 0.25 0"/>
<feBlend mode="normal" in2="BackgroundImageFix" result="effect1_dropShadow_2_107371"/>
<feBlend mode="normal" in="SourceGraphic" in2="effect1_dropShadow_2_107371" result="shape"/>
</filter>
</defs>
</svg>
